<mxfile host="app.diagrams.net" agent="Mozilla/5.0 (Macintosh; Intel Mac OS X 10_15_7) AppleWebKit/537.36 (KHTML, like Gecko) Chrome/116.0.0.0 Safari/537.36" version="24.7.15">
  <diagram name="Page-1" id="o8XlsWnnpRnbrCQ8FYEk">
    <mxGraphModel dx="795" dy="508" grid="1" gridSize="10" guides="1" tooltips="1" connect="1" arrows="1" fold="1" page="1" pageScale="1" pageWidth="850" pageHeight="1100" math="0" shadow="0">
      <root>
        <mxCell id="0" />
        <mxCell id="1" parent="0" />
        <mxCell id="_eAn0dJ42G-p-g4B5pes-1" value="Admin" style="ellipse;whiteSpace=wrap;html=1;aspect=fixed;fillColor=#f8cecc;strokeColor=#b85450;" vertex="1" parent="1">
          <mxGeometry x="40" y="280" width="80" height="80" as="geometry" />
        </mxCell>
        <mxCell id="_eAn0dJ42G-p-g4B5pes-5" value="Log In" style="rounded=1;whiteSpace=wrap;html=1;fillColor=#e1d5e7;strokeColor=#9673a6;" vertex="1" parent="1">
          <mxGeometry x="690" y="210" width="120" height="60" as="geometry" />
        </mxCell>
        <mxCell id="_eAn0dJ42G-p-g4B5pes-10" value="OR" style="ellipse;whiteSpace=wrap;html=1;aspect=fixed;strokeColor=#6c8ebf;fillColor=#dae8fc;" vertex="1" parent="1">
          <mxGeometry x="840" y="220" width="40" height="40" as="geometry" />
        </mxCell>
        <mxCell id="_eAn0dJ42G-p-g4B5pes-11" value="Log Out" style="rounded=1;whiteSpace=wrap;html=1;fillColor=#e1d5e7;strokeColor=#9673a6;" vertex="1" parent="1">
          <mxGeometry x="690" y="120" width="120" height="60" as="geometry" />
        </mxCell>
        <mxCell id="_eAn0dJ42G-p-g4B5pes-12" value="" style="endArrow=none;html=1;rounded=0;strokeColor=#028090;fontColor=#E4FDE1;fillColor=#F45B69;" edge="1" parent="1">
          <mxGeometry width="50" height="50" relative="1" as="geometry">
            <mxPoint x="859.6" y="150" as="sourcePoint" />
            <mxPoint x="859.6" y="220" as="targetPoint" />
          </mxGeometry>
        </mxCell>
        <mxCell id="_eAn0dJ42G-p-g4B5pes-13" value="" style="endArrow=classic;html=1;rounded=0;strokeColor=#028090;fontColor=#E4FDE1;fillColor=#F45B69;entryX=1;entryY=0.5;entryDx=0;entryDy=0;" edge="1" parent="1" target="_eAn0dJ42G-p-g4B5pes-11">
          <mxGeometry width="50" height="50" relative="1" as="geometry">
            <mxPoint x="860" y="150" as="sourcePoint" />
            <mxPoint x="950" y="30" as="targetPoint" />
          </mxGeometry>
        </mxCell>
        <mxCell id="_eAn0dJ42G-p-g4B5pes-14" value="&lt;font color=&quot;#000000&quot;&gt;Done for&lt;/font&gt;&lt;div&gt;&lt;font color=&quot;#000000&quot;&gt;Now&lt;/font&gt;&lt;/div&gt;" style="edgeLabel;resizable=0;html=1;;align=center;verticalAlign=middle;strokeColor=#028090;fontColor=#E4FDE1;fillColor=#F45B69;" connectable="0" vertex="1" parent="1">
          <mxGeometry x="860.0035897435897" y="190" as="geometry" />
        </mxCell>
        <mxCell id="_eAn0dJ42G-p-g4B5pes-15" value="Attempt Log In" style="rounded=1;whiteSpace=wrap;html=1;fillColor=#e1d5e7;strokeColor=#9673a6;" vertex="1" parent="1">
          <mxGeometry x="200" y="210" width="120" height="60" as="geometry" />
        </mxCell>
        <mxCell id="_eAn0dJ42G-p-g4B5pes-16" value="MFA verification" style="rounded=1;whiteSpace=wrap;html=1;fillColor=#e1d5e7;strokeColor=#9673a6;" vertex="1" parent="1">
          <mxGeometry x="400" y="210" width="120" height="60" as="geometry" />
        </mxCell>
        <mxCell id="_eAn0dJ42G-p-g4B5pes-17" value="" style="endArrow=classic;html=1;rounded=0;exitX=1;exitY=0.5;exitDx=0;exitDy=0;entryX=0;entryY=0.5;entryDx=0;entryDy=0;strokeColor=#028090;" edge="1" parent="1" source="_eAn0dJ42G-p-g4B5pes-15" target="_eAn0dJ42G-p-g4B5pes-16">
          <mxGeometry relative="1" as="geometry">
            <mxPoint x="300" y="310" as="sourcePoint" />
            <mxPoint x="400" y="310" as="targetPoint" />
          </mxGeometry>
        </mxCell>
        <mxCell id="_eAn0dJ42G-p-g4B5pes-18" value="MFA&lt;div&gt;redirect&lt;/div&gt;" style="edgeLabel;resizable=0;html=1;;align=center;verticalAlign=middle;" connectable="0" vertex="1" parent="_eAn0dJ42G-p-g4B5pes-17">
          <mxGeometry relative="1" as="geometry" />
        </mxCell>
        <mxCell id="_eAn0dJ42G-p-g4B5pes-19" value="" style="endArrow=classic;html=1;rounded=0;exitX=1;exitY=0.5;exitDx=0;exitDy=0;entryX=0;entryY=0.5;entryDx=0;entryDy=0;fillColor=#0050ef;strokeColor=#028090;" edge="1" parent="1" source="_eAn0dJ42G-p-g4B5pes-34" target="_eAn0dJ42G-p-g4B5pes-5">
          <mxGeometry width="50" height="50" relative="1" as="geometry">
            <mxPoint x="510" y="340" as="sourcePoint" />
            <mxPoint x="560" y="290" as="targetPoint" />
          </mxGeometry>
        </mxCell>
        <mxCell id="_eAn0dJ42G-p-g4B5pes-21" value="" style="endArrow=classic;html=1;rounded=0;entryX=0;entryY=0.5;entryDx=0;entryDy=0;fillColor=#0050ef;strokeColor=#028090;exitX=1;exitY=0.5;exitDx=0;exitDy=0;" edge="1" parent="1" source="_eAn0dJ42G-p-g4B5pes-5" target="_eAn0dJ42G-p-g4B5pes-10">
          <mxGeometry width="50" height="50" relative="1" as="geometry">
            <mxPoint x="830" y="170" as="sourcePoint" />
            <mxPoint x="820" y="239.71" as="targetPoint" />
          </mxGeometry>
        </mxCell>
        <mxCell id="_eAn0dJ42G-p-g4B5pes-22" value="" style="endArrow=classic;html=1;rounded=0;strokeColor=#028090;entryX=0;entryY=0.5;entryDx=0;entryDy=0;" edge="1" parent="1" target="_eAn0dJ42G-p-g4B5pes-15">
          <mxGeometry relative="1" as="geometry">
            <mxPoint x="80" y="240" as="sourcePoint" />
            <mxPoint x="210" y="280" as="targetPoint" />
          </mxGeometry>
        </mxCell>
        <mxCell id="_eAn0dJ42G-p-g4B5pes-23" value="Want to&lt;div&gt;log in&lt;/div&gt;" style="edgeLabel;resizable=0;html=1;;align=center;verticalAlign=middle;" connectable="0" vertex="1" parent="_eAn0dJ42G-p-g4B5pes-22">
          <mxGeometry relative="1" as="geometry" />
        </mxCell>
        <mxCell id="_eAn0dJ42G-p-g4B5pes-24" value="" style="endArrow=none;html=1;rounded=0;exitX=0.5;exitY=0;exitDx=0;exitDy=0;strokeColor=#028090;" edge="1" parent="1" source="_eAn0dJ42G-p-g4B5pes-1">
          <mxGeometry width="50" height="50" relative="1" as="geometry">
            <mxPoint x="140" y="310" as="sourcePoint" />
            <mxPoint x="80" y="240" as="targetPoint" />
          </mxGeometry>
        </mxCell>
        <mxCell id="_eAn0dJ42G-p-g4B5pes-25" value="" style="endArrow=none;html=1;rounded=0;strokeColor=#028090;" edge="1" parent="1">
          <mxGeometry width="50" height="50" relative="1" as="geometry">
            <mxPoint x="919.6" y="240" as="sourcePoint" />
            <mxPoint x="919.6" y="150" as="targetPoint" />
          </mxGeometry>
        </mxCell>
        <mxCell id="_eAn0dJ42G-p-g4B5pes-26" value="" style="endArrow=none;html=1;rounded=0;exitX=1;exitY=0.5;exitDx=0;exitDy=0;strokeColor=#028090;" edge="1" parent="1" source="_eAn0dJ42G-p-g4B5pes-10">
          <mxGeometry width="50" height="50" relative="1" as="geometry">
            <mxPoint x="790" y="360" as="sourcePoint" />
            <mxPoint x="920" y="240" as="targetPoint" />
          </mxGeometry>
        </mxCell>
        <mxCell id="_eAn0dJ42G-p-g4B5pes-27" value="" style="endArrow=none;html=1;rounded=0;exitX=1;exitY=0.5;exitDx=0;exitDy=0;strokeColor=#028090;" edge="1" parent="1">
          <mxGeometry width="50" height="50" relative="1" as="geometry">
            <mxPoint x="860" y="149.82999999999998" as="sourcePoint" />
            <mxPoint x="920" y="150" as="targetPoint" />
          </mxGeometry>
        </mxCell>
        <mxCell id="_eAn0dJ42G-p-g4B5pes-28" value="&lt;font color=&quot;#000000&quot;&gt;Inactive for&lt;/font&gt;&lt;div&gt;&lt;font color=&quot;#000000&quot;&gt;15 minutes&lt;/font&gt;&lt;/div&gt;" style="edgeLabel;resizable=0;html=1;;align=center;verticalAlign=middle;strokeColor=#028090;fontColor=#E4FDE1;fillColor=#F45B69;" connectable="0" vertex="1" parent="1">
          <mxGeometry x="920.0035897435897" y="190" as="geometry" />
        </mxCell>
        <mxCell id="_eAn0dJ42G-p-g4B5pes-29" value="Log Out&lt;div&gt;Confirmation&lt;/div&gt;" style="rounded=1;whiteSpace=wrap;html=1;fillColor=#e1d5e7;strokeColor=#9673a6;" vertex="1" parent="1">
          <mxGeometry x="400" y="120" width="120" height="60" as="geometry" />
        </mxCell>
        <mxCell id="_eAn0dJ42G-p-g4B5pes-30" value="" style="endArrow=classic;html=1;rounded=0;exitX=0;exitY=0.5;exitDx=0;exitDy=0;entryX=1;entryY=0.5;entryDx=0;entryDy=0;strokeColor=#028090;" edge="1" parent="1" source="_eAn0dJ42G-p-g4B5pes-11" target="_eAn0dJ42G-p-g4B5pes-29">
          <mxGeometry relative="1" as="geometry">
            <mxPoint x="330" y="250" as="sourcePoint" />
            <mxPoint x="410" y="250" as="targetPoint" />
          </mxGeometry>
        </mxCell>
        <mxCell id="_eAn0dJ42G-p-g4B5pes-36" value="" style="endArrow=none;html=1;rounded=0;strokeColor=#028090;fontColor=#E4FDE1;fillColor=#F45B69;" edge="1" parent="1" target="_eAn0dJ42G-p-g4B5pes-34">
          <mxGeometry width="50" height="50" relative="1" as="geometry">
            <mxPoint x="520" y="240" as="sourcePoint" />
            <mxPoint x="634.86" y="250" as="targetPoint" />
          </mxGeometry>
        </mxCell>
        <mxCell id="_eAn0dJ42G-p-g4B5pes-32" value="OR" style="ellipse;whiteSpace=wrap;html=1;aspect=fixed;strokeColor=#6c8ebf;fillColor=#dae8fc;" vertex="1" parent="1">
          <mxGeometry x="540" y="220" width="40" height="40" as="geometry" />
        </mxCell>
        <mxCell id="_eAn0dJ42G-p-g4B5pes-33" value="" style="edgeLabel;resizable=0;html=1;;align=center;verticalAlign=middle;strokeColor=#028090;fontColor=#E4FDE1;fillColor=#F45B69;" connectable="0" vertex="1" parent="1">
          <mxGeometry x="640.0035897435897" y="240" as="geometry">
            <mxPoint x="6" y="-5" as="offset" />
          </mxGeometry>
        </mxCell>
        <mxCell id="_eAn0dJ42G-p-g4B5pes-34" value="Success" style="text;html=1;align=center;verticalAlign=middle;whiteSpace=wrap;rounded=0;" vertex="1" parent="1">
          <mxGeometry x="610" y="225" width="50" height="30" as="geometry" />
        </mxCell>
        <mxCell id="_eAn0dJ42G-p-g4B5pes-38" value="" style="endArrow=none;html=1;rounded=0;strokeColor=#028090;fontColor=#E4FDE1;fillColor=#F45B69;" edge="1" parent="1" source="_eAn0dJ42G-p-g4B5pes-40">
          <mxGeometry width="50" height="50" relative="1" as="geometry">
            <mxPoint x="250" y="300" as="sourcePoint" />
            <mxPoint x="560" y="300" as="targetPoint" />
          </mxGeometry>
        </mxCell>
        <mxCell id="_eAn0dJ42G-p-g4B5pes-39" value="" style="endArrow=none;html=1;rounded=0;strokeColor=#028090;fontColor=#E4FDE1;fillColor=#F45B69;" edge="1" parent="1">
          <mxGeometry width="50" height="50" relative="1" as="geometry">
            <mxPoint x="560" y="260" as="sourcePoint" />
            <mxPoint x="560" y="300" as="targetPoint" />
          </mxGeometry>
        </mxCell>
        <mxCell id="_eAn0dJ42G-p-g4B5pes-41" value="" style="endArrow=none;html=1;rounded=0;strokeColor=#028090;fontColor=#E4FDE1;fillColor=#F45B69;" edge="1" parent="1" target="_eAn0dJ42G-p-g4B5pes-40">
          <mxGeometry width="50" height="50" relative="1" as="geometry">
            <mxPoint x="260" y="300" as="sourcePoint" />
            <mxPoint x="560" y="300" as="targetPoint" />
          </mxGeometry>
        </mxCell>
        <mxCell id="_eAn0dJ42G-p-g4B5pes-40" value="Failure" style="text;html=1;align=center;verticalAlign=middle;whiteSpace=wrap;rounded=0;" vertex="1" parent="1">
          <mxGeometry x="380" y="290" width="40" height="20" as="geometry" />
        </mxCell>
        <mxCell id="_eAn0dJ42G-p-g4B5pes-42" value="" style="endArrow=classic;html=1;rounded=0;entryX=0.48;entryY=1.029;entryDx=0;entryDy=0;strokeColor=#028090;entryPerimeter=0;" edge="1" parent="1">
          <mxGeometry relative="1" as="geometry">
            <mxPoint x="260.1" y="300" as="sourcePoint" />
            <mxPoint x="259.90000000000003" y="269.99999999999994" as="targetPoint" />
          </mxGeometry>
        </mxCell>
        <mxCell id="_eAn0dJ42G-p-g4B5pes-44" value="" style="endArrow=classic;html=1;rounded=0;strokeColor=#028090;entryX=0;entryY=0.5;entryDx=0;entryDy=0;" edge="1" parent="1">
          <mxGeometry relative="1" as="geometry">
            <mxPoint x="80" y="400" as="sourcePoint" />
            <mxPoint x="200" y="400" as="targetPoint" />
          </mxGeometry>
        </mxCell>
        <mxCell id="_eAn0dJ42G-p-g4B5pes-45" value="Is logged&lt;div&gt;in&lt;/div&gt;" style="edgeLabel;resizable=0;html=1;;align=center;verticalAlign=middle;" connectable="0" vertex="1" parent="_eAn0dJ42G-p-g4B5pes-44">
          <mxGeometry relative="1" as="geometry" />
        </mxCell>
        <mxCell id="_eAn0dJ42G-p-g4B5pes-46" value="" style="endArrow=none;html=1;rounded=0;exitX=0.5;exitY=0;exitDx=0;exitDy=0;strokeColor=#028090;" edge="1" parent="1">
          <mxGeometry width="50" height="50" relative="1" as="geometry">
            <mxPoint x="79.58" y="400" as="sourcePoint" />
            <mxPoint x="79.58" y="360" as="targetPoint" />
          </mxGeometry>
        </mxCell>
        <mxCell id="_eAn0dJ42G-p-g4B5pes-47" value="At: Home Page" style="rounded=1;whiteSpace=wrap;html=1;fillColor=#e1d5e7;strokeColor=#9673a6;" vertex="1" parent="1">
          <mxGeometry x="200" y="370" width="120" height="60" as="geometry" />
        </mxCell>
        <mxCell id="_eAn0dJ42G-p-g4B5pes-48" value="At: System Configuration page" style="rounded=1;whiteSpace=wrap;html=1;fillColor=#e1d5e7;strokeColor=#9673a6;" vertex="1" parent="1">
          <mxGeometry x="400" y="370" width="120" height="60" as="geometry" />
        </mxCell>
        <mxCell id="_eAn0dJ42G-p-g4B5pes-49" value="" style="endArrow=classic;html=1;rounded=0;exitX=1;exitY=0.5;exitDx=0;exitDy=0;entryX=0;entryY=0.5;entryDx=0;entryDy=0;strokeColor=#028090;" edge="1" parent="1">
          <mxGeometry relative="1" as="geometry">
            <mxPoint x="320" y="399.72" as="sourcePoint" />
            <mxPoint x="400" y="399.72" as="targetPoint" />
          </mxGeometry>
        </mxCell>
        <mxCell id="_eAn0dJ42G-p-g4B5pes-50" value="Want to&lt;div&gt;change&lt;/div&gt;&lt;div&gt;syscfg&lt;/div&gt;" style="edgeLabel;resizable=0;html=1;;align=center;verticalAlign=middle;" connectable="0" vertex="1" parent="_eAn0dJ42G-p-g4B5pes-49">
          <mxGeometry relative="1" as="geometry" />
        </mxCell>
        <mxCell id="_eAn0dJ42G-p-g4B5pes-51" value="Select Module to change" style="rounded=1;whiteSpace=wrap;html=1;fillColor=#e1d5e7;strokeColor=#9673a6;" vertex="1" parent="1">
          <mxGeometry x="560" y="370" width="120" height="60" as="geometry" />
        </mxCell>
        <mxCell id="_eAn0dJ42G-p-g4B5pes-53" value="" style="endArrow=classic;html=1;rounded=0;exitX=1;exitY=0.5;exitDx=0;exitDy=0;strokeColor=#028090;" edge="1" parent="1">
          <mxGeometry relative="1" as="geometry">
            <mxPoint x="520" y="399.72" as="sourcePoint" />
            <mxPoint x="560" y="400" as="targetPoint" />
          </mxGeometry>
        </mxCell>
        <mxCell id="_eAn0dJ42G-p-g4B5pes-55" value="Update Module (make desired change)" style="rounded=1;whiteSpace=wrap;html=1;fillColor=#e1d5e7;strokeColor=#9673a6;" vertex="1" parent="1">
          <mxGeometry x="720" y="370" width="120" height="60" as="geometry" />
        </mxCell>
        <mxCell id="_eAn0dJ42G-p-g4B5pes-56" value="" style="endArrow=classic;html=1;rounded=0;exitX=1;exitY=0.5;exitDx=0;exitDy=0;strokeColor=#028090;" edge="1" parent="1">
          <mxGeometry relative="1" as="geometry">
            <mxPoint x="680" y="399.72" as="sourcePoint" />
            <mxPoint x="720" y="400" as="targetPoint" />
          </mxGeometry>
        </mxCell>
        <mxCell id="_eAn0dJ42G-p-g4B5pes-58" value="" style="endArrow=none;html=1;rounded=0;strokeColor=#028090;fontColor=#E4FDE1;fillColor=#F45B69;" edge="1" parent="1">
          <mxGeometry width="50" height="50" relative="1" as="geometry">
            <mxPoint x="939.72" y="430" as="sourcePoint" />
            <mxPoint x="940" y="490" as="targetPoint" />
          </mxGeometry>
        </mxCell>
        <mxCell id="_eAn0dJ42G-p-g4B5pes-59" value="" style="endArrow=none;html=1;rounded=0;strokeColor=#028090;fontColor=#E4FDE1;fillColor=#F45B69;" edge="1" parent="1">
          <mxGeometry width="50" height="50" relative="1" as="geometry">
            <mxPoint x="460" y="490" as="sourcePoint" />
            <mxPoint x="940" y="490" as="targetPoint" />
          </mxGeometry>
        </mxCell>
        <mxCell id="_eAn0dJ42G-p-g4B5pes-60" value="" style="endArrow=classic;html=1;rounded=0;strokeColor=#028090;entryX=0.5;entryY=1;entryDx=0;entryDy=0;" edge="1" parent="1" target="_eAn0dJ42G-p-g4B5pes-48">
          <mxGeometry relative="1" as="geometry">
            <mxPoint x="460" y="490" as="sourcePoint" />
            <mxPoint x="570" y="410" as="targetPoint" />
          </mxGeometry>
        </mxCell>
        <mxCell id="_eAn0dJ42G-p-g4B5pes-62" value="Repeat until:&lt;div&gt;all desired changes&lt;/div&gt;&lt;div&gt;made&lt;/div&gt;" style="ellipse;whiteSpace=wrap;html=1;fillColor=#dae8fc;strokeColor=#6c8ebf;" vertex="1" parent="1">
          <mxGeometry x="640" y="460" width="120" height="60" as="geometry" />
        </mxCell>
        <mxCell id="_eAn0dJ42G-p-g4B5pes-63" value="Audit Log created of system change" style="rounded=1;whiteSpace=wrap;html=1;fillColor=#e1d5e7;strokeColor=#9673a6;" vertex="1" parent="1">
          <mxGeometry x="880" y="370" width="120" height="60" as="geometry" />
        </mxCell>
        <mxCell id="_eAn0dJ42G-p-g4B5pes-64" value="" style="endArrow=classic;html=1;rounded=0;exitX=1;exitY=0.5;exitDx=0;exitDy=0;strokeColor=#028090;" edge="1" parent="1">
          <mxGeometry relative="1" as="geometry">
            <mxPoint x="840" y="399.72" as="sourcePoint" />
            <mxPoint x="880" y="400" as="targetPoint" />
          </mxGeometry>
        </mxCell>
        <mxCell id="_eAn0dJ42G-p-g4B5pes-65" value="At: Audit Log page" style="rounded=1;whiteSpace=wrap;html=1;fillColor=#e1d5e7;strokeColor=#9673a6;" vertex="1" parent="1">
          <mxGeometry x="400" y="550" width="120" height="60" as="geometry" />
        </mxCell>
        <mxCell id="_eAn0dJ42G-p-g4B5pes-66" value="" style="endArrow=none;html=1;rounded=0;strokeColor=#028090;fontColor=#E4FDE1;fillColor=#F45B69;exitX=0.5;exitY=1;exitDx=0;exitDy=0;" edge="1" parent="1" source="_eAn0dJ42G-p-g4B5pes-47">
          <mxGeometry width="50" height="50" relative="1" as="geometry">
            <mxPoint x="260" y="450" as="sourcePoint" />
            <mxPoint x="260" y="800" as="targetPoint" />
          </mxGeometry>
        </mxCell>
        <mxCell id="_eAn0dJ42G-p-g4B5pes-67" value="" style="endArrow=classic;html=1;rounded=0;exitX=1;exitY=0.5;exitDx=0;exitDy=0;entryX=0;entryY=0.5;entryDx=0;entryDy=0;strokeColor=#028090;" edge="1" parent="1" target="_eAn0dJ42G-p-g4B5pes-65">
          <mxGeometry relative="1" as="geometry">
            <mxPoint x="260" y="580" as="sourcePoint" />
            <mxPoint x="340" y="580" as="targetPoint" />
          </mxGeometry>
        </mxCell>
        <mxCell id="_eAn0dJ42G-p-g4B5pes-68" value="Want to&lt;div&gt;view audit&lt;/div&gt;&lt;div&gt;logs&lt;/div&gt;" style="edgeLabel;resizable=0;html=1;;align=center;verticalAlign=middle;" connectable="0" vertex="1" parent="_eAn0dJ42G-p-g4B5pes-67">
          <mxGeometry relative="1" as="geometry" />
        </mxCell>
        <mxCell id="_eAn0dJ42G-p-g4B5pes-69" value="View logs" style="rounded=1;whiteSpace=wrap;html=1;fillColor=#e1d5e7;strokeColor=#9673a6;" vertex="1" parent="1">
          <mxGeometry x="720" y="550" width="120" height="60" as="geometry" />
        </mxCell>
        <mxCell id="_eAn0dJ42G-p-g4B5pes-70" value="" style="endArrow=classic;html=1;rounded=0;exitX=1;exitY=0.5;exitDx=0;exitDy=0;strokeColor=#028090;" edge="1" parent="1">
          <mxGeometry relative="1" as="geometry">
            <mxPoint x="520" y="579.72" as="sourcePoint" />
            <mxPoint x="560" y="580" as="targetPoint" />
          </mxGeometry>
        </mxCell>
        <mxCell id="_eAn0dJ42G-p-g4B5pes-71" value="OPTIONAL:&lt;div&gt;select filters&lt;/div&gt;" style="rhombus;whiteSpace=wrap;html=1;fillColor=#e1d5e7;strokeColor=#9673a6;" vertex="1" parent="1">
          <mxGeometry x="560" y="540" width="120" height="80" as="geometry" />
        </mxCell>
        <mxCell id="_eAn0dJ42G-p-g4B5pes-72" value="" style="endArrow=classic;html=1;rounded=0;exitX=1;exitY=0.5;exitDx=0;exitDy=0;strokeColor=#028090;" edge="1" parent="1">
          <mxGeometry relative="1" as="geometry">
            <mxPoint x="680" y="579.79" as="sourcePoint" />
            <mxPoint x="720" y="580.0699999999999" as="targetPoint" />
          </mxGeometry>
        </mxCell>
        <mxCell id="_eAn0dJ42G-p-g4B5pes-73" value="Find out of place/suspicious log&lt;span style=&quot;color: rgba(0, 0, 0, 0); font-family: monospace; font-size: 0px; text-align: start; text-wrap: nowrap;&quot;&gt;%3CmxGraphModel%3E%3Croot%3E%3CmxCell%20id%3D%220%22%2F%3E%3CmxCell%20id%3D%221%22%20parent%3D%220%22%2F%3E%3CmxCell%20id%3D%222%22%20value%3D%22View%20logs%22%20style%3D%22rounded%3D1%3BwhiteSpace%3Dwrap%3Bhtml%3D1%3BfillColor%3D%23e1d5e7%3BstrokeColor%3D%239673a6%3B%22%20vertex%3D%221%22%20parent%3D%221%22%3E%3CmxGeometry%20x%3D%22720%22%20y%3D%22550%22%20width%3D%22120%22%20height%3D%2260%22%20as%3D%22geometry%22%2F%3E%3C%2FmxCell%3E%3CmxCell%20id%3D%223%22%20value%3D%22%22%20style%3D%22endArrow%3Dclassic%3Bhtml%3D1%3Brounded%3D0%3BexitX%3D1%3BexitY%3D0.5%3BexitDx%3D0%3BexitDy%3D0%3BstrokeColor%3D%23028090%3B%22%20edge%3D%221%22%20parent%3D%221%22%3E%3CmxGeometry%20relative%3D%221%22%20as%3D%22geometry%22%3E%3CmxPoint%20x%3D%22680%22%20y%3D%22579.79%22%20as%3D%22sourcePoint%22%2F%3E%3CmxPoint%20x%3D%22720%22%20y%3D%22580.0699999999999%22%20as%3D%22targetPoint%22%2F%3E%3C%2FmxGeometry%3E%3C%2FmxCell%3E%3C%2Froot%3E%3C%2FmxGraphModel%3E&lt;/span&gt;&lt;span style=&quot;color: rgba(0, 0, 0, 0); font-family: monospace; font-size: 0px; text-align: start; text-wrap: nowrap;&quot;&gt;%3CmxGraphModel%3E%3Croot%3E%3CmxCell%20id%3D%220%22%2F%3E%3CmxCell%20id%3D%221%22%20parent%3D%220%22%2F%3E%3CmxCell%20id%3D%222%22%20value%3D%22View%20logs%22%20style%3D%22rounded%3D1%3BwhiteSpace%3Dwrap%3Bhtml%3D1%3BfillColor%3D%23e1d5e7%3BstrokeColor%3D%239673a6%3B%22%20vertex%3D%221%22%20parent%3D%221%22%3E%3CmxGeometry%20x%3D%22720%22%20y%3D%22550%22%20width%3D%22120%22%20height%3D%2260%22%20as%3D%22geometry%22%2F%3E%3C%2FmxCell%3E%3CmxCell%20id%3D%223%22%20value%3D%22%22%20style%3D%22endArrow%3Dclassic%3Bhtml%3D1%3Brounded%3D0%3BexitX%3D1%3BexitY%3D0.5%3BexitDx%3D0%3BexitDy%3D0%3BstrokeColor%3D%23028090%3B%22%20edge%3D%221%22%20parent%3D%221%22%3E%3CmxGeometry%20relative%3D%221%22%20as%3D%22geometry%22%3E%3CmxPoint%20x%3D%22680%22%20y%3D%22579.79%22%20as%3D%22sourcePoint%22%2F%3E%3CmxPoint%20x%3D%22720%22%20y%3D%22580.0699999999999%22%20as%3D%22targetPoint%22%2F%3E%3C%2FmxGeometry%3E%3C%2FmxCell%3E%3C%2Froot%3E%3C%2FmxGraphModel%3E&lt;/span&gt;" style="rounded=1;whiteSpace=wrap;html=1;fillColor=#e1d5e7;strokeColor=#9673a6;" vertex="1" parent="1">
          <mxGeometry x="880" y="550" width="120" height="60" as="geometry" />
        </mxCell>
        <mxCell id="_eAn0dJ42G-p-g4B5pes-74" value="" style="endArrow=classic;html=1;rounded=0;exitX=1;exitY=0.5;exitDx=0;exitDy=0;strokeColor=#028090;" edge="1" parent="1">
          <mxGeometry relative="1" as="geometry">
            <mxPoint x="840" y="579.79" as="sourcePoint" />
            <mxPoint x="880" y="580.0699999999999" as="targetPoint" />
          </mxGeometry>
        </mxCell>
        <mxCell id="_eAn0dJ42G-p-g4B5pes-75" value="Flag action&lt;span style=&quot;color: rgba(0, 0, 0, 0); font-family: monospace; font-size: 0px; text-align: start; text-wrap: nowrap;&quot;&gt;%3CmxGraphModel%3E%3Croot%3E%3CmxCell%20id%3D%220%22%2F%3E%3CmxCell%20id%3D%221%22%20parent%3D%220%22%2F%3E%3CmxCell%20id%3D%222%22%20value%3D%22View%20logs%22%20style%3D%22rounded%3D1%3BwhiteSpace%3Dwrap%3Bhtml%3D1%3BfillColor%3D%23e1d5e7%3BstrokeColor%3D%239673a6%3B%22%20vertex%3D%221%22%20parent%3D%221%22%3E%3CmxGeometry%20x%3D%22720%22%20y%3D%22550%22%20width%3D%22120%22%20height%3D%2260%22%20as%3D%22geometry%22%2F%3E%3C%2FmxCell%3E%3CmxCell%20id%3D%223%22%20value%3D%22%22%20style%3D%22endArrow%3Dclassic%3Bhtml%3D1%3Brounded%3D0%3BexitX%3D1%3BexitY%3D0.5%3BexitDx%3D0%3BexitDy%3D0%3BstrokeColor%3D%23028090%3B%22%20edge%3D%221%22%20parent%3D%221%22%3E%3CmxGeometry%20relative%3D%221%22%20as%3D%22geometry%22%3E%3CmxPoint%20x%3D%22680%22%20y%3D%22579.79%22%20as%3D%22sourcePoint%22%2F%3E%3CmxPoint%20x%3D%22720%22%20y%3D%22580.0699999999999%22%20as%3D%22targetPoint%22%2F%3E%3C%2FmxGeometry%3E%3C%2FmxCell%3E%3C%2Froot%3E%3C%2FmxGraphModel%3E&lt;/span&gt;" style="rounded=1;whiteSpace=wrap;html=1;fillColor=#e1d5e7;strokeColor=#9673a6;" vertex="1" parent="1">
          <mxGeometry x="1040" y="550" width="120" height="60" as="geometry" />
        </mxCell>
        <mxCell id="_eAn0dJ42G-p-g4B5pes-76" value="" style="endArrow=classic;html=1;rounded=0;exitX=1;exitY=0.5;exitDx=0;exitDy=0;strokeColor=#028090;" edge="1" parent="1">
          <mxGeometry relative="1" as="geometry">
            <mxPoint x="1000" y="579.79" as="sourcePoint" />
            <mxPoint x="1040" y="580.0699999999999" as="targetPoint" />
          </mxGeometry>
        </mxCell>
        <mxCell id="_eAn0dJ42G-p-g4B5pes-77" value="Decide action to take" style="rounded=1;whiteSpace=wrap;html=1;fillColor=#e1d5e7;strokeColor=#9673a6;" vertex="1" parent="1">
          <mxGeometry x="1200" y="550" width="120" height="60" as="geometry" />
        </mxCell>
        <mxCell id="_eAn0dJ42G-p-g4B5pes-78" value="" style="endArrow=classic;html=1;rounded=0;exitX=1;exitY=0.5;exitDx=0;exitDy=0;strokeColor=#028090;" edge="1" parent="1">
          <mxGeometry relative="1" as="geometry">
            <mxPoint x="1160" y="579.79" as="sourcePoint" />
            <mxPoint x="1200" y="580.0699999999999" as="targetPoint" />
          </mxGeometry>
        </mxCell>
        <mxCell id="_eAn0dJ42G-p-g4B5pes-80" value="OR" style="ellipse;whiteSpace=wrap;html=1;aspect=fixed;strokeColor=#6c8ebf;fillColor=#dae8fc;" vertex="1" parent="1">
          <mxGeometry x="1240" y="650" width="40" height="40" as="geometry" />
        </mxCell>
        <mxCell id="_eAn0dJ42G-p-g4B5pes-81" value="" style="endArrow=classic;html=1;rounded=0;exitX=0.5;exitY=1;exitDx=0;exitDy=0;strokeColor=#028090;" edge="1" parent="1" source="_eAn0dJ42G-p-g4B5pes-77">
          <mxGeometry relative="1" as="geometry">
            <mxPoint x="1340" y="720" as="sourcePoint" />
            <mxPoint x="1260" y="650" as="targetPoint" />
          </mxGeometry>
        </mxCell>
        <mxCell id="_eAn0dJ42G-p-g4B5pes-82" value="" style="endArrow=none;html=1;rounded=0;strokeColor=#028090;exitX=0;exitY=0.5;exitDx=0;exitDy=0;endFill=0;" edge="1" parent="1" source="_eAn0dJ42G-p-g4B5pes-80">
          <mxGeometry relative="1" as="geometry">
            <mxPoint x="1390" y="630" as="sourcePoint" />
            <mxPoint x="460" y="670" as="targetPoint" />
          </mxGeometry>
        </mxCell>
        <mxCell id="_eAn0dJ42G-p-g4B5pes-83" value="Do Nothing" style="edgeLabel;resizable=0;html=1;;align=center;verticalAlign=middle;" connectable="0" vertex="1" parent="_eAn0dJ42G-p-g4B5pes-82">
          <mxGeometry relative="1" as="geometry" />
        </mxCell>
        <mxCell id="_eAn0dJ42G-p-g4B5pes-84" value="" style="endArrow=classic;html=1;rounded=0;strokeColor=#028090;exitX=0.5;exitY=1;exitDx=0;exitDy=0;" edge="1" parent="1" source="_eAn0dJ42G-p-g4B5pes-80">
          <mxGeometry relative="1" as="geometry">
            <mxPoint x="1380" y="700" as="sourcePoint" />
            <mxPoint x="1260" y="760" as="targetPoint" />
          </mxGeometry>
        </mxCell>
        <mxCell id="_eAn0dJ42G-p-g4B5pes-85" value="Manage&lt;div&gt;User&lt;/div&gt;" style="edgeLabel;resizable=0;html=1;;align=center;verticalAlign=middle;" connectable="0" vertex="1" parent="_eAn0dJ42G-p-g4B5pes-84">
          <mxGeometry relative="1" as="geometry" />
        </mxCell>
        <mxCell id="_eAn0dJ42G-p-g4B5pes-87" value="" style="endArrow=classic;html=1;rounded=0;strokeColor=#028090;entryX=0.5;entryY=1;entryDx=0;entryDy=0;" edge="1" parent="1" target="_eAn0dJ42G-p-g4B5pes-65">
          <mxGeometry relative="1" as="geometry">
            <mxPoint x="460" y="670" as="sourcePoint" />
            <mxPoint x="570" y="590" as="targetPoint" />
          </mxGeometry>
        </mxCell>
        <mxCell id="_eAn0dJ42G-p-g4B5pes-88" value="" style="endArrow=classic;html=1;rounded=0;strokeColor=#028090;exitX=1;exitY=0.5;exitDx=0;exitDy=0;" edge="1" parent="1" source="_eAn0dJ42G-p-g4B5pes-80">
          <mxGeometry relative="1" as="geometry">
            <mxPoint x="1270" y="700" as="sourcePoint" />
            <mxPoint x="1400" y="670" as="targetPoint" />
          </mxGeometry>
        </mxCell>
        <mxCell id="_eAn0dJ42G-p-g4B5pes-89" value="Flag action" style="edgeLabel;resizable=0;html=1;;align=center;verticalAlign=middle;" connectable="0" vertex="1" parent="_eAn0dJ42G-p-g4B5pes-88">
          <mxGeometry relative="1" as="geometry" />
        </mxCell>
        <mxCell id="_eAn0dJ42G-p-g4B5pes-90" value="Mark in audit logs" style="rounded=1;whiteSpace=wrap;html=1;fillColor=#e1d5e7;strokeColor=#9673a6;" vertex="1" parent="1">
          <mxGeometry x="1400" y="640" width="120" height="60" as="geometry" />
        </mxCell>
        <mxCell id="_eAn0dJ42G-p-g4B5pes-91" value="Decide action to take" style="rounded=1;whiteSpace=wrap;html=1;fillColor=#e1d5e7;strokeColor=#9673a6;" vertex="1" parent="1">
          <mxGeometry x="1200" y="760" width="120" height="60" as="geometry" />
        </mxCell>
        <mxCell id="_eAn0dJ42G-p-g4B5pes-92" value="Decide action to take" style="rounded=1;whiteSpace=wrap;html=1;fillColor=#e1d5e7;strokeColor=#9673a6;" vertex="1" parent="1">
          <mxGeometry x="400" y="760" width="120" height="60" as="geometry" />
        </mxCell>
        <mxCell id="_eAn0dJ42G-p-g4B5pes-93" value="" style="endArrow=classic;html=1;rounded=0;exitX=1;exitY=0.5;exitDx=0;exitDy=0;entryX=0;entryY=0.5;entryDx=0;entryDy=0;strokeColor=#028090;" edge="1" parent="1">
          <mxGeometry relative="1" as="geometry">
            <mxPoint x="260" y="800" as="sourcePoint" />
            <mxPoint x="400" y="800" as="targetPoint" />
          </mxGeometry>
        </mxCell>
        <mxCell id="_eAn0dJ42G-p-g4B5pes-94" value="Want to&lt;div&gt;view audit&lt;/div&gt;&lt;div&gt;logs&lt;/div&gt;" style="edgeLabel;resizable=0;html=1;;align=center;verticalAlign=middle;" connectable="0" vertex="1" parent="_eAn0dJ42G-p-g4B5pes-93">
          <mxGeometry relative="1" as="geometry" />
        </mxCell>
      </root>
    </mxGraphModel>
  </diagram>
</mxfile>
